<?xml version="1.0" encoding="utf-8"?>
<!-- Generator: Adobe Illustrator 19.0.0, SVG Export Plug-In . SVG Version: 6.00 Build 0)  -->
<svg version="1.1" id="Layer_1" xmlns="http://www.w3.org/2000/svg" xmlns:xlink="http://www.w3.org/1999/xlink" x="0px" y="0px"
	 viewBox="0 0 50 50" style="enable-background:new 0 0 50 50;" xml:space="preserve">
<style type="text/css">
	.st0{fill:#FFD33F;}
	.st1{fill:#FFFFFF;}
	.st2{fill:#0000FF;}
	.st3{fill:none;stroke:#0000FF;stroke-width:5;stroke-linecap:round;stroke-miterlimit:10;}
</style>
<path id="XMLID_3_" class="st0" d="M44.6,9.4C48,13.7,50,19.1,50,25c0,13.8-11.2,25-25,25S0,38.8,0,25S11.2,0,25,0
	C32.9,0,40,3.7,44.6,9.4 M37.9,14.4c-3.1-3.7-7.7-6.1-12.9-6.1C15.8,8.3,8.3,15.8,8.3,25S15.8,41.7,25,41.7S41.7,34.2,41.7,25
	C41.7,21,40.3,17.3,37.9,14.4"/>
<path id="XMLID_5_" class="st1" d="M50.1,4.5v41.8L13.9,25.4L50.1,4.5v41.8L13.9,25.4L50.1,4.5z"/>
<rect id="XMLID_6_" x="25" y="25" class="st2" width="25" height="7.8"/>
<line id="XMLID_9_" class="st3" x1="21.6" y1="28.9" x2="30.4" y2="37.7"/>
<line id="XMLID_10_" class="st3" x1="21.6" y1="28.9" x2="30.4" y2="20.1"/>
</svg>
